<?xml version="1.0" encoding="utf-8"?>
<svg version="1.1" id="Logo" xmlns="http://www.w3.org/2000/svg" xmlns:xlink="http://www.w3.org/1999/xlink" x="0px" y="0px"
	 viewBox="0 0 451.6 452" style="enable-background:new 0 0 451.6 452;" xml:space="preserve">
<style type="text/css">
	.st0{fill:#FFFFFF; opacity:.8}
</style>
<path class="st0" d="M346.3,309.1c-23.7-0.3-47.6-0.5-71.3-0.9c-2.1,0-3.2,0.8-4.2,2.3c-13.6,19.4-27.3,38.8-41.1,58
	c-1.9,2.5-4.2,5-7,6.5c-10.7,6.2-24.1,0.8-27.9-11.2c-5-15.8-9.9-31.7-14.8-47.5c-0.3-0.9-0.7-1.9-1-2.8
	c-29.4,29.4-58.5,58.7-87.7,87.9c76.6,61.4,204.5,66.9,291-19.1c89-88.4,86.1-233.3-5.9-319C285.1-21.8,140-14,58.4,80.7
	c-79.6,92.5-65.6,221,3.6,293.8c29.6-29.6,59.2-59.4,88.8-89c-0.3-0.1-1-0.3-1.5-0.5c-15.8-4.9-31.6-9.7-47.2-14.8
	c-3.4-1.1-6.8-3-9.3-5.4c-8.5-8.5-6.9-22.2,3.2-29.4c19.6-13.9,39.2-27.8,58.9-41.6c1.3-0.9,2-1.9,1.9-3.5
	c-0.2-4.7-0.1-9.3-0.2-13.9c-0.3-19.5-0.5-38.9-0.9-58.4c-0.1-8.9,5.1-16.3,13.3-19c6.5-2.1,12.5-1.1,18,3
	c19.3,14.4,38.6,28.8,57.8,43.1c1.4,1.1,2.6,1.3,4.4,0.7c22.5-7.7,45.1-15.5,67.7-22.9c3.4-1.1,7.3-1.5,10.7-1
	c11.9,2.1,18.5,13.8,14.6,25.5c-7.7,22.9-15.5,45.6-23.2,68.5c-0.5,1.5-0.3,2.6,0.7,3.9c14.3,19.1,28.4,38.1,42.7,57.2
	c5,6.8,6.3,13.8,2.5,21.3C361,305.8,354.5,309.2,346.3,309.1z"/>
</svg>
